<svg font-family="-apple-system-body, ui-sans-serif, -apple-system, system-ui, &quot;Segoe UI&quot;, Helvetica, &quot;Apple Color Emoji&quot;, Arial, sans-serif, &quot;Segoe UI Emoji&quot;, &quot;Segoe UI Symbol&quot;" font-weight="400" data-d-component="svg" fill="currentColor" style="color:rgb(13, 13, 13)" viewBox="0 0 330 145" width="100%" xmlns="http://www.w3.org/2000/svg"><rect x="5" y="5" width="74" height="67" rx="6" fill="#16a34a" fill-opacity=".09" stroke="#16a34a"/><text x="42" y="18" text-anchor="middle" font-size="10" fill="currentColor">Block 0</text><rect x="11" y="24" width="18" height="15" rx="3" fill="#16a34a" fill-opacity=".24"/><path d="M 20 39 L 42 51" stroke="#16a34a" stroke-width="1"/><rect x="33" y="24" width="18" height="15" rx="3" fill="#16a34a" fill-opacity=".24"/><path d="M 42 39 L 42 51" stroke="#16a34a" stroke-width="1"/><rect x="55" y="24" width="18" height="15" rx="3" fill="#16a34a" fill-opacity=".24"/><path d="M 64 39 L 42 51" stroke="#16a34a" stroke-width="1"/><rect x="22" y="51" width="40" height="16" rx="4" fill="#16a34a" fill-opacity=".20"/><text x="42" y="62" font-size="9" text-anchor="middle" fill="currentColor">Sum</text><path d="M 42 72 L 165 109" stroke="#16a34a" stroke-width="1.3" fill="none"/><rect x="87" y="5" width="74" height="67" rx="6" fill="#16a34a" fill-opacity=".09" stroke="#16a34a"/><text x="124" y="18" text-anchor="middle" font-size="10" fill="currentColor">Block 1</text><rect x="93" y="24" width="18" height="15" rx="3" fill="#16a34a" fill-opacity=".24"/><path d="M 102 39 L 124 51" stroke="#16a34a" stroke-width="1"/><rect x="115" y="24" width="18" height="15" rx="3" fill="#16a34a" fill-opacity=".24"/><path d="M 124 39 L 124 51" stroke="#16a34a" stroke-width="1"/><rect x="137" y="24" width="18" height="15" rx="3" fill="#16a34a" fill-opacity=".24"/><path d="M 146 39 L 124 51" stroke="#16a34a" stroke-width="1"/><rect x="104" y="51" width="40" height="16" rx="4" fill="#16a34a" fill-opacity=".20"/><text x="124" y="62" font-size="9" text-anchor="middle" fill="currentColor">Sum</text><path d="M 124 72 L 165 109" stroke="#16a34a" stroke-width="1.3" fill="none"/><rect x="169" y="5" width="74" height="67" rx="6" fill="#16a34a" fill-opacity=".09" stroke="#16a34a"/><text x="206" y="18" text-anchor="middle" font-size="10" fill="currentColor">Block 2</text><rect x="175" y="24" width="18" height="15" rx="3" fill="#16a34a" fill-opacity=".24"/><path d="M 184 39 L 206 51" stroke="#16a34a" stroke-width="1"/><rect x="197" y="24" width="18" height="15" rx="3" fill="#16a34a" fill-opacity=".24"/><path d="M 206 39 L 206 51" stroke="#16a34a" stroke-width="1"/><rect x="219" y="24" width="18" height="15" rx="3" fill="#16a34a" fill-opacity=".24"/><path d="M 228 39 L 206 51" stroke="#16a34a" stroke-width="1"/><rect x="186" y="51" width="40" height="16" rx="4" fill="#16a34a" fill-opacity=".20"/><text x="206" y="62" font-size="9" text-anchor="middle" fill="currentColor">Sum</text><path d="M 206 72 L 165 109" stroke="#16a34a" stroke-width="1.3" fill="none"/><rect x="251" y="5" width="74" height="67" rx="6" fill="#16a34a" fill-opacity=".09" stroke="#16a34a"/><text x="288" y="18" text-anchor="middle" font-size="10" fill="currentColor">Block 3</text><rect x="257" y="24" width="18" height="15" rx="3" fill="#16a34a" fill-opacity=".24"/><path d="M 266 39 L 288 51" stroke="#16a34a" stroke-width="1"/><rect x="279" y="24" width="18" height="15" rx="3" fill="#16a34a" fill-opacity=".24"/><path d="M 288 39 L 288 51" stroke="#16a34a" stroke-width="1"/><rect x="301" y="24" width="18" height="15" rx="3" fill="#16a34a" fill-opacity=".24"/><path d="M 310 39 L 288 51" stroke="#16a34a" stroke-width="1"/><rect x="268" y="51" width="40" height="16" rx="4" fill="#16a34a" fill-opacity=".20"/><text x="288" y="62" font-size="9" text-anchor="middle" fill="currentColor">Sum</text><path d="M 288 72 L 165 109" stroke="#16a34a" stroke-width="1.3" fill="none"/><rect x="104" y="110" width="122" height="30" rx="6" fill="#16a34a" fill-opacity=".13" stroke="#16a34a"/><text x="165" y="129" font-size="12" font-weight="600" text-anchor="middle" fill="currentColor">Global result</text></svg>